<mxfile host="Electron" modified="2023-10-11T11:20:45.679Z" agent="Mozilla/5.0 (Macintosh; Intel Mac OS X 10_15_7) AppleWebKit/537.36 (KHTML, like Gecko) draw.io/22.0.2 Chrome/114.0.5735.289 Electron/25.8.4 Safari/537.36" etag="jKd9jgnIXQ-oF0pdZrOU" version="22.0.2" type="device">
  <diagram name="Page-1" id="VWLyBR6WL_vDLK74GmtO">
    <mxGraphModel dx="2395" dy="813" grid="1" gridSize="10" guides="1" tooltips="1" connect="1" arrows="1" fold="1" page="1" pageScale="1" pageWidth="1169" pageHeight="827" math="0" shadow="0">
      <root>
        <mxCell id="0" />
        <mxCell id="1" parent="0" />
        <mxCell id="4W7vb-_gK_N_zVpGkKDe-2" value="" style="shape=cube;whiteSpace=wrap;html=1;boundedLbl=1;backgroundOutline=1;darkOpacity=0.05;darkOpacity2=0.1;flipH=1;movable=0;resizable=0;rotatable=0;deletable=0;editable=0;locked=1;connectable=0;" parent="1" vertex="1">
          <mxGeometry x="12" y="20" width="560" height="210" as="geometry" />
        </mxCell>
        <mxCell id="xci1zv83TCUc0aVE51ZR-15" value="" style="shape=cube;whiteSpace=wrap;html=1;boundedLbl=1;backgroundOutline=1;darkOpacity=0.05;darkOpacity2=0.1;flipH=1;" parent="1" vertex="1">
          <mxGeometry x="12" y="450" width="560" height="370" as="geometry" />
        </mxCell>
        <mxCell id="4W7vb-_gK_N_zVpGkKDe-17" value="" style="group" parent="1" vertex="1" connectable="0">
          <mxGeometry x="12" y="250" width="708" height="274" as="geometry" />
        </mxCell>
        <mxCell id="4W7vb-_gK_N_zVpGkKDe-15" value="" style="shape=cube;whiteSpace=wrap;html=1;boundedLbl=1;backgroundOutline=1;darkOpacity=0.05;darkOpacity2=0.1;flipH=1;" parent="4W7vb-_gK_N_zVpGkKDe-17" vertex="1">
          <mxGeometry width="556.3418423973362" height="190" as="geometry" />
        </mxCell>
        <mxCell id="4W7vb-_gK_N_zVpGkKDe-16" value="&lt;font style=&quot;font-size: 20px;&quot;&gt;Exchange Provider&lt;/font&gt;" style="text;html=1;strokeColor=none;fillColor=none;align=center;verticalAlign=middle;whiteSpace=wrap;rounded=0;" parent="4W7vb-_gK_N_zVpGkKDe-17" vertex="1">
          <mxGeometry y="10" width="180" height="50" as="geometry" />
        </mxCell>
        <mxCell id="2liIedxoCzO7XZG55FuA-4" value="" style="shape=image;aspect=fixed;image=data:image/jpeg,/9j/4AAQSkZJRgABAQEAAAAAAAD/4QAuRXhpZgAATU0AKgAAAAgAAkAAAAMAAAABADsAAEABAAEAAAABAAAAAAAAAAD/2wBDAAoHBwkHBgoJCAkLCwoMDxkQDw4ODx4WFxIZJCAmJSMgIyIoLTkwKCo2KyIjMkQyNjs9QEBAJjBGS0U+Sjk/QD3/2wBDAQsLCw8NDx0QEB09KSMpPT09PT09PT09PT09PT09PT09PT09PT09PT09PT09PT09PT09PT09PT09PT09PT09PT3/wAARCAFjAdoDASIAAhEBAxEB/8QAHwAAAQUBAQEBAQEAAAAAAAAAAAECAwQFBgcICQoL/8QAtRAAAgEDAwIEAwUFBAQAAAF9AQIDAAQRBRIhMUEGE1FhByJxFDKBkaEII0KxwRVS0fAkM2JyggkKFhcYGRolJicoKSo0NTY3ODk6Q0RFRkdISUpTVFVWV1hZWmNkZWZnaGlqc3R1dnd4eXqDhIWGh4iJipKTlJWWl5iZmqKjpKWmp6ipqrKztLW2t7i5usLDxMXGx8jJytLT1NXW19jZ2uHi4+Tl5ufo6erx8vP09fb3+Pn6/8QAHwEAAwEBAQEBAQEBAQAAAAAAAAECAwQFBgcICQoL/8QAtREAAgECBAQDBAcFBAQAAQJ3AAECAxEEBSExBhJBUQdhcRMiMoEIFEKRobHBCSMzUvAVYnLRChYkNOEl8RcYGRomJygpKjU2Nzg5OkNERUZHSElKU1RVVldYWVpjZGVmZ2hpanN0dXZ3eHl6goOEhYaHiImKkpOUlZaXmJmaoqOkpaanqKmqsrO0tba3uLm6wsPExcbHyMnK0tPU1dbX2Nna4uPk5ebn6Onq8vP09fb3+Pn6/9oADAMBAAIRAxEAPwD2WiiigAooooAKKKKACiiigAooooAKKKKACiiigAooooAKKKKACiiigAooooAKKKKACiiigAooooAKKKKACiiigAooooAKKKKACiiigAooooAKKKKACiiigAooooAKKKKACiiigAooooAKKKKACiiigAooooAKKKKACiiigAooooAKKKKACiiigAooooAKKKKACiiigAooooAKKKKACiiigAooooAKKKKACiiigAooooAKKKKACiiigAooooAKKKKACiiigAooooAKKKKACiiigAooooAKKKKACiiigAooooAKKKKACiiigAooooAKKKKACiiigAooooAKKKKACiiigAooooAKKKKACiiigAooooAKKKKACiiigAooooAKKKKAEoqjqOsWemJm6mCseiDlj+FQaJrsetNPsiMYiIADHkg9/wBKvkly81tDP2kOblvqa1FFFQaBRRRQAUUUUAFFJVTUr4adp810y7hGucZxmhJtpITaSuy5RmsbTfE1hqOE3+VKf4JOPyPQ1s1UouLtJWJhOM1eLuFFFFSWFFFFABRRRQAUUUUAFFFFABRRRQAUUUUAFFFFABRRRQAUUUUAFFFFABRRRQAUUUUAFFFFABRRRQAUUUUAFFFFABRRRQAUUUUAFFFFABRRRQAUUUUAFFFVb6+h061ae4cJGv5n2HqaEm3ZCbSV2TSypDE0krqiKMlmOABXH6x4xeQtDpuUToZiOT9B2+prI1nXbjV5fmzHbj7kef1Pqaza9OhhFH3p79jysRjHL3YaLuKztI5d2ZnY5LMck1q+GNQGn6um84im/dsT2J6H8/51k02uycFKLj0Zxwm4yUuqPXqDXG6b4yW200R3cby3EYwpH8Y9z2NZWoeJb/UCQZfIiP8ABEcfmepryo4Oo209F3PWljaaimtWztr/AF2w0/InuF3j+BeW/IViS+OoxLiKzdox1ZmAP5VxtOrrhgoJe9qcU8dUb00PQ7HxVpt5hTKYXP8ADKNv69K2VYMuQQQe9eQ1fsNYvtOI+yzsqf3G+Zfy/wAKzqYHrBmtPH9Jo9QrkvG2oKIYrBDyx8yTHYDp+v8AKlt/G8bWrm4tys4XgIcqx/pXJXVzJeXMlxM26SQ5J7f/AKh0qcPhpKd5q1i8TiouHLB3uQ1t6T4nu9OIjkJuLccbWPK/Q/0NY1FehOEZq0lc86FSUHeLsz1HT9TttUgEts4Yd1PVfqKuV5RZ3k9hcLPayFHHp0PsfUV6BomvQ6xFjiO5UfPHn9R6ivKr4Z09Vqj1sNilV92WjNeiiiuU7AooooAKKKKACiiigAooooAKKKKACiiigAooooAKKKKACiiigAooooAKKKKACiiigAooooAKKKKACiiigAooooAKKKKACiiigAooooAKKKKAGk4BOCa838Qajd32osLqN4ljOEhYdB6+5PrXpNZ+q6Pb6tbmOZQHH3JAOV/z6Vvh6sacrtHNiaUqkLRdjzOirF9YzafdvbzjDLyGHRh6iq9ezGSkro8SUXF2e4UUUUxBRRRQAUUU2gB1FFFABRRRTAKKKKQBUltPLa3KTW7skqn5SOf/ANefSo0RncKoLMxwFAzmu88PeG49OjW4uVV7thnnkR+w/wAaxr1o046636G+Hoyqy93S3U1dNuZruxjluYGhlI+ZD2NXKT6UV4jep7sU0rNi0UUUDCiiigAooooAKKKKACiiigAooooAKKKKACiiigAooooAKKKKACiiigAooooAKKKKACiiigAooooAKKKKACiiigAooooAKKKKACiiigAoorG8Q64ukWwVMNcyD5F9P9o+wpwg5tJbkTmoRcmZPjWazdIojzdqcjH8Knrn6+lcjTpZXmkeWVy7ucsSeppte3Rpezgo3ueFWqe1m5WsFFFFamQU6KKSeQRxI0khPCqMmtPRvD9zqxDj91bA8yEdfp613Om6RaaXFst4wCR8zn7zfU1y1sVGnotWdVHCTqavRHMab4LmlxJqD+Up58tD834nt+tdLBoOnW8BhS0iKt97cMk/ia0BQa86pXnN6s9Snh6dNWSOW1HwVDLl9PkML/8APNzlT+PUfrXKXun3WnTeXdQmMnoTyG+h716rUNzaw3cJjuI1kQ9VYcVrSxc4aS1RjWwUJ6x0Z5RRXS614RktQ0+n5liHJiPLL9PX+f1rmq9KnVjUV4s8upSlTdpIKKKK0MzV8Mz2lvrCNecdo2PRWPc/yzXo9eQ11/hXxAdy6fePk9IpCev+yf6flXBjKDl76PQwVdR9x/edhRRRXmnqhRRRQAUUUUAFFFFABRRRQAUUUUAFFFFABRRRQAUUUUAFFFFABRRRQAUUUUAFFFFABRRRQAUUUUAFFFFABRRRQAUUUUAFFFFABRRRQAUUUUAU9U1GLS7J7iY8AcDux7CvNLy7lv7p7m4bc7/p6AewrrvHX/Hla/8AXX+hri69TBU0oc/U8jHVJOfJ0Ciiiu04RtdP4f8ADBu9t1fqVg6pEer+59B/Ol8MeHhdFb29T9yDmOMj7/ufb+ddsOOK8/E4m3uQ+bPRwuEvac/khqKsaBUUKoGAAOlOqne6rZacB9quFjJ6L1J/AVVt/FGl3MgRboIx4HmKVB/E1wqE2r2Z6DqQTtdGvRQMHkd6Kg0Ciis6+1yw09tlzcKr/wBwcn8hTScnZImUlFXbNGuc1/wwl/uubMCO56kdBJ/gfer9n4i029kEcVwu88BXBUn861KuLnSlfZkSUK0bbo8jkjaKRo5FZHU4ZSOQaSu98R+Hl1KM3FuoW7QfQOPQ/wCNcEQyEqwIZTggjGK9ehWVVefU8avRdKVnt0YUcjBGQQcgjjFFFbGB3/hjW/7TtfJmb/SYR8xP8Y9a3q898H/8jBH/ANc2r0KvGxVNQqWWx7mEqOdNN7oKKKK5zpCiiigAooooAKKKKACiiigAooooAKKKKACiiigAooooAKKKKACiiigAooooAKKKKACiiigAooooAKKKKACiiigAooooAKKKKACiiigDmfHCZ0qBv7sw/UGuIrv/ABhF5nh+Q/8APN1b9cf1rgK9bBP938zxscrVb90FNp1J611nGj1mAqbeIqAFKjAH0qvqt6NO02e6IyUXIHqeg/XFN0Sf7RotnJ6xL+gx/SoPEtu1zoFykeS4AcAd8HJ/QGvCUV7Sz7nvyk/Z80ex53PPJcztLM5eR+WJ/wA9Kiop1e6lbRHgN31Z1/gzVJJC9hMxYIu+Mk9u4/DIrrq4TwTbNJqks+DsjjIz7k//AFjXd142KSVR2PbwbbpK5keJNROl6S8kZxK52IfQnv8AlmvOXLO5ZiWZjksTnNd140tmm0dJFGRDIGbHocj+orha7cFGPJfrc4cdKTqWe1htd94S1SS/sXhuGLSwEDcerKen48EVwddf4FtmCXdwRhWIRT64yT/MVWMjF07vpsTgpSVRJbPc66vNvEpB8Q3e0AAFc4HU7RXpNeV6rN5+rXcg6NK2PzwK5sCvfb8jrzB+4vUrUUUV6Z5JveC0zrhP92Fj+orv64nwNETe3UvZYwv5n/61dr614+Md6rPZwStSFooormOwKKKKACiiigAooooAKKKKACiiigAooooAKKKKACiiigAooooAKKKKACiiigAooooAKKKKACiiigAooooAKKKKACiiigAooooAz7rW7CynMNzcrHIACVIPQ1Xl8VaTEuftO8+iITXO+N4tmrQydnix+IP/ANcVzlehRwkJwUm3qeZWxk4TcUlodNrXi2O/tJbW3t28uQYLyHHHsK5miiu6nSjTVoo4alWVV3kwoooqzM7zwZc+dovlE/NDIVx7Hn+tdDXC+CrvydTktmPyzJkf7y//AFifyruq8XFQ5ar8z3MLPnpLyOU1XwaJ5Wm0+RYixyY2Hy/gR0+lULfwRevIPPnijT1UljXdUU1iqqja4PCUm72KenabBpdqILdcKOST1Y+pq5RRXO227s6FFJWQySNZo2jkUMjDBB7iuQ1DwS/mF9PlXYefLkzx7A/412VFaU6s6bvFmdWjCqrSRxNn4IuGkBvJ0RB1WPkn8+n612FraxWdukMCBI0GABU1FFStOp8TFSoQpfCivf3AtLGecnHloW/SvKsk8nqeTXd+NLvyNIWAH553C/8AARyf6D8a4SvQwMLRcu552Pneaj2Ciiiu04TW0LXW0YyDyRIkhG7Bw3FdTB4w0yUfO7wnuHQ/0zXAUVz1MLCo+Z7nTSxU6astj0hfEulOVC3ikscAAHk/lWp9K8t0qLztXtI/WZc/nn+lepDivOxFGNJpJnpYWtKqm5IWiiiuc6gooooAKKKKACiiigAooooAKKKKACiiigAooooAKKKKACiiigAooooAKKKKACiiigAooooAKKKKACiiigAooooAKKKKAOV8c2xezt7gD/VuVJ9iP8RXGV6brln9u0i4gAyzLlfqOR/KvMK9XBTvDl7Hj46FqnN3Q6iiiuw4gooooAltLlrK8huU+9GwYD19fz6V6nBOlxBHNGcpIoYH1Bryeu08F6l5ts9jIfni+ZM91P8Agf51xY2neKmuh34GryycH1Opoooryz1gooooAKKKKACiis3XdSGmaXJNkeYRtjHqx6f59qcU5NJEykoptnG+K7/7brLopzHbjyxj17/rx+FY1BJJJJJJOST3or3qcFCCiuh8/Um5ycn1CiiiqICiiimBt+ELYza6j4ysKF/6f1r0KuX8EWfl2U12w5mbav0H/wBcn8q6ivGxU+ao/I9vBw5aS8wooormOoKKKKACiiigAooooAKKKKACiiigAooooAKKKKACiiigAooooAKKKKACiiigAooooAKKKKACiiigAooooAKKKKACiiigArzbxHp50/WZVUYjlPmJ+PUfnmvSaxPFGlHUtNLRrmeH50x39R+NdGFq+znrszlxVL2kNN0ee0qI0jhUVmY9FUZJrf0TwrLfhZ7wtFAeVUcM/wDgK7Ky061sI9lrCkY7kDk/U967quLhB2jqzgo4Oc9ZaI8wmt5bZwk8TxuRkK4wcUyu48Y6WbqxF3EuZbf72O6d/wAuv51w9a0Kyqxv1Ma9F0p8vToFT2V5Jp97FcRfejOceo7j8qgorVpSVmZJuLuj0uz17T7xFMdzGGI+4xwR+BrQDhhkEHNeRVLFcTQ/6maSP/ccj+VcEsB/Kz0I5g18SPWqK8wXXdTj+7fz/i2f51J/wkurf8/r/wDfI/wrP6jPujVZhDsz0ujNeZPr+qP1vpR9MD+VVZb67uP9ddTP/vSE01gZdWhPMI9Ez0y51Oys1JuLmJMdiwz+VcJ4k1garfgRMTbRDCf7R7n+n4VjU6umjhI0nzXuzlrYuVVctrIKKKK6zkAAkgAEkngDnNPmgmtn23ETxN6OpH863fCOl/bNQN1Iv7q3PGe7/wD1uv5V3MsEU8ZSWNXQ9mGa4q2LVOfKlfudtHBurDmbt2PJqfDC9zOkMYy8jBVHua67WPB0bq0um/JIOTET8p+h7H9PpUXg/RpFuZLy6jZDFmONWHIbuf6fnVvFQdNyT+RCwk1UUWvmdRYWqWNnDbp92NQo96s0UV47bbue0lZWQUUUUDCiiigAooooAKKKKACiiigAooooAKKKKACiiigAooooAKKKKACiiigAooooAKKKKACiiigAooooAKKKKACiiigAooooAKKKKACiiigBrKGBBAIIxivN9f0ltJ1EooPkSfNGfbuPrXpVZ+saXHq1i0D4DjlGx91u1b4et7KXk9zmxNH2sNN0eZUVoXeg6jZZMts5UfxR/MP0rO9u/pXsRnGSunc8WUJRdmrC0UUVRIUUUUAFFFFABRRTaAHVJbW8l3cR28K7pJDtUf57DrUlrpl5fMBbW0sg/vAYA/E8V2nhnw82lh7i6Cm5fgAHIRawrV404uz17HRRoSqSWmnc1dM0+PTbCK2j6KOT3J7mrdLRXjN3d2e2opJJBRRRSKCiiigAooooAKKKKACiiigAooooAKKKKACiiigAooooAKKKKACiiigAooooAKKKKACiiigAooooAKKKKACiiigAooooAKKKKACiiigAooooAKKKKACiiigBKqXOl2V7n7RbRSE9yoz+dXKKE2noyXFNao5+fwbpkuSglhP+w5/rmuP1nTl0rUntlcuoUEEjnmvT+ted+K5A/iGfH8Kqp/LP9a78HVnKdm7qx5+NpQjBNLW5j0UUV6R5gUqgu4UdWIApKVH2SK391gaGCO4g8EWCYMss8p92AH6Vp22g6daYMNnFkfxEZP5mr6MGRWHQjNOrwpVZy3Z9BCjTjqkIFCgADAFLRRWZqFFFFABRRRQAUUUUAFFZHiXxJZeFdJOo6iJTAHCful3HJ9vwrkv+F4+Fv7uof9+B/wDFUAeiUVQ0TWLfXtIt9Ssw4t7hdyeYMN1xyPwq/QAUUUUAFFFFABRRRQAUUUUAFFFFABRRRQAUUUUAFFFFABRRRQAUUUUAFFFFABRRRQAUUUUAFFFFABRRRQAUUUUAFFFFABRRRQAUUUUAFFcF8VvGGo+ENMsJdKeJZp5mVjIm4FQuf5kVwfhr4teJtU8T6ZY3M1qYLi6jjkAgAJUsAefpQB7tLIsUTu5wqqST6CvKry6N5ezXDdZHLY9B2/SvWKqXGlWN1nzrWFye5QZrow9ZUW21e5y4mg6ySTseW0V6JJ4T0l/+XXb/ALrkf1qP/hDdK3Z2S/TzDXasdT7M4XgKndHn9Icd8V6RH4Y0mPGLNGI/vEn+dWotKsYf9XZwL9EFS8fDoio5fPqyp4avft2iwMTlox5bfUf/AFsGtemqoQAKAAOwFOrzZNNto9SEeWKTCiiikUFFFFABRRRQAUUUUAeffG3/AJJ8/wD18xf1r51r6K+Nv/JPn/6+Yv61860AfUPwx/5Jzo3/AFxP/oTV1Vcr8Mf+Sc6N/wBcT/6E1dVQAUUUUAFFFFABRRRQAUUUUAFFFFABRRRQAUUUUAFFFFABRRRQAUUUUAFFFFABRRRQAUUUUAFFFFABRRRQAUUVnav4g0vQLcTatfQWqHp5jct9B1P4UAaNFebX3xz8N27lbaG/usfxJGFX/wAeIP6VFbfHjw/K4E9lqMI/vbEYfo1AHp1FYGg+NtA8SYXS9RiklI/1L/JJ/wB8nk/hmt+gAoorEn8Z+HLYkS67pykHBH2lP8aAPNf2gZv+QHB/12cj/vgf415r4I/5HnQ/+v6H/wBCFdZ8Z/EOna9rOnHS7yG7ihgYM0RyAxbp+QFcf4SuobHxdpNzdSLFBDdxPI7dFUMCTQB9Z0VzP/CyfCX/AEHbT8z/AIUf8LJ8Jf8AQdtPzP8AhQB01FVNM1Sz1iyS80+4S4tnyFkTocHB/UGrdABRRWZrHiPSdAiEmq6hBagjIV2+Zvoo5P4UAadFecXvxy8M2xK20V/dY/iSIKD/AN9EH9KrQfHnQXfE2n6jEv8AeCo3/s1AHqFFc5oXj/w74iZY7DUovPbpDL+7c/QHr+Ga6OgAooooAKKgvb61061a4vbiK3gT70krhQPxNcNqfxp8L2Dslu91esO8EWF/NiP0zQB6BRXl8Hx50J5AJtO1GNT1YBG/9mrrdA8e+HvErrHp2ox+e3SCUbJD9Aev4ZoAwfjb/wAk+f8A6+Yv618619HfGmPf8Orhv7k8Tf8Aj2P61840AfUPwx/5Jzo3/XE/+hNXVVyvwx/5Jzo3/XE/+hNXVUAFFFFABRRRQAUUUUAFFFFABRRRQAUUUUAFFFFABRRRQAUUUUAFFFFABRRRQAUUUUAFFFFABRRRQAUUVynxD8XDwj4YluYyDeTnyrZT/fPVj7Ac/XA70AYPxI+KUfhpn0zR9k2qEfvHPK2/19W747d/SvB7/UbvVbx7u+uJbi4k+9JI24n/AD6VFPNJcTPNO7SSyMWZ2OSxPJJr2T4Y/C23NpDrfiCASvKA9tayD5VXqGcdyeoB4x156AHl2leEdd1uMSabpN1cRHpIsZCn/gR4q1e/D/xRp8TS3OiXgRRksibwP++c19ToqogVVCqBgADpTqAPjhHkgkDozRyIchgcFSP5V7T8L/ilLf3MWh+IJt874W2umPLn+4/v6Hv0PNbHxN+HNtr+mXGp6ZbrFqsClzsGPtAHUH1bHQ/h9PnxHaNw8bFWU5DA8g0AfZDfcb6V8c3P/HzLjpvP86+ovAHiM+KPCFnfSEG4UeVcf768E/iMH8a3P7Os/wDn0t/+/a0AfHtFehfGuKOHx2EijWNfskfyqAB1b0rmPBiLJ400VHVWVr6EFWGQRvFAGJRX2B/ZNh/z42v/AH5X/Cj+ybD/AJ8bX/vyv+FAHJ/B3/km2n/78v8A6Mau3pkUMcEYjhjWNB0VRgD8K88+L3jN/D2irplhIUv75TlgcGKLoSPQnoPxoAyfiH8XTYyy6V4bdWnUlJrzGQh9E9T/ALXQds14tdXlxfXL3F3PJPM5y0kjFmJ+pqGvWfhn8K01e2i1nxAjfZH+a3tunmj+83+z6Dv16dQDzOw0jUNUcrp9jc3TA8iGIvj8qvXXg3xFZxGW40TUI4x1YwNgfpX1Va2dvYwJBaQRwQoMLHEoVR+AqagD415Ru4YfpXsnwj8da3qOprod4kt/bBCwuGPz24H95v4genPOT6V2vjL4a6R4sgkkES2moY+S5jXqf9sD7w/X3q14E8GW3gzQxbIVlu5SHuZwPvt2A/2R2/E96AOnrmPG3jay8GaV58+JbuXIt7cHBc+p9FHc/h1roL28h06ynvLpwkECGSRj2UDJNfKvizxJc+K/EFxqVySFY7Yo88Rxj7q/19ySaAE8R+K9V8VXzXOq3JkxnZGOI4x6Kvb69T3JrJjieaQRxozuxwFUZJrZ8KeF73xdrUenWK4yN0sxHyxJ3Y/yx3Jr6P8AC/gvSPCVosWn2ymbGHuHAMkh9z2+gwKAPm4eDfETReaNC1Ip1z9mf/Csua3uLGfZPFLBMvO11KsPzr7FrO1jQdN161NvqtlDcxkcb15X6HqD9KAPneb4i6lqPgu68P6uTdK4TyLlm+dNrA4b+8MAjPX61xteh/Eb4Yt4SX+0tOmM2lvJsIkPzwk9Af7w9/z9a88oA+ofhj/yTnRv+uJ/9Cauqrlfhj/yTnRv+uJ/9CauqoAKKKKACiiigAooooAKKKKACiiigAooooAKKKKACiiigAooooAKKKKACiiigAooooAKKKKACiiigAr55+NettqPjP7ArZh0+IIAP77Dcx/VR+FfQ1fJfiu7a+8W6tcsc+ZdykfTccfpigDR+Hfh5PEvjOxs5l3WyEzTg9Ci84/E4H419RABQABgDsK+avhp4x07wXqd5eahbXE7TRCKPyQpIGcnOSPQV6N/wvvQv+gbqX5R/wDxVAHqFFeX/wDC+9C/6BupflH/APFUf8L70L/oG6l+Uf8A8VQB6hXyv4+0pdG8c6raRrtiE5kQdgr/ADAfQbsfhXrH/C+9C/6BupflH/8AFV5R498R2vivxTPqllDLDHIiLtlA3ZVcdvpQB6F8AdRONY05j8o8udB+at/7LXsteB/AaQjxhep2aybP4Ote+UAfPHxx/wCR+H/XpH/Nq5bwT/yPGh/9f0P/AKGK6n44/wDI/D/r0j/m1ct4J/5HjQ/+v6H/ANDFAH1hRRRQAV8s/EHWzr/jXUbvcWiSUwxf7ifKPzwT+NfTeq3Js9IvLkdYYHkH4KT/AEr5AYlmLE5JPJNAHReAvDo8T+MLKwkBNvu8yf8A65ryR+PA/GvqaONYkVI1CoowqgYAFeKfAGxV9R1i+IG6KKOFT/vEk/8AoAr22gAooooAKKKKAPOPjdrLad4OjsY2Ikv5ghwf4F+Y/rtH418916x8fbpn17SrXPyx2zSY92bB/wDQBXlcMRmnjiHV2Cj8aAPon4PeG00XwdFeOgF3qP752I52fwD6Y5/Gu+qGztks7OC2jACQxrGoHYAY/pU1ABRRRQB598bf+SfP/wBfMX9a+da+ivjb/wAk+f8A6+Yv61860AfUPwx/5Jzo3/XE/wDoTV1Vcr8Mf+Sc6N/1xP8A6E1dVQAUUUUAFFFFABRRRQAUUUUAFFFFABRRRQAUUUUAFFFFABRRRQAUUUUAFFFFABRRRQAUUUUAFFFFABXyDrSlNcv1PVbiQf8Ajxr6+r5Z+ImnNpfj3WICu1WuDKv0f5h/6FQAvgzwReeNbi6gsrm3ge3QM3nE8gnHGAfT9a6v/hQmu/8AQS0783/+JrP+C+qrpvjpLeRtqX0LQjP97hh/6CR+NfRVAHgv/ChNd/6CWnfm/wD8TR/woTXf+glp35v/APE171RQB4L/AMKE13/oJad+b/8AxNH/AAoTXf8AoJad+b//ABNe9UUAebfDf4aX/gzWbm9vru1nWWDylEJbIO4HuB6V6TRRQB88fHH/AJH4f9ekf82rlvBP/I8aH/1/Q/8AoYrqfjj/AMj8P+vSP+bVy3gn/keND/6/of8A0MUAfWFFFFAGZ4lQv4X1ZR1aymA/74NfI9fY9xCtzbSwt92RCh+hGK+P721exvri1kBEkEjRsD2IOD/KgD2P9n6QfZtcT+LfC2PbD17DXgHwM1VbPxdcWLkAXtuQue7odw/8d3V7/QAUUUUAFFFFAHgfx5QjxhZMejWS/wDob15zprCPVLRj0WZCf++hXq/x/siLzR70Dho5ISfoQR/6Ea8gBIII4IPFAH2VRWfoOoLq2gWF8jZFxbpJn3I5/XNaFABRRRQB598bf+SfP/18xf1r51r6K+Nv/JPn/wCvmL+tfOtAH1D8Mf8AknOjf9cT/wChNXVVyvwx/wCSc6N/1xP/AKE1dVQAUUUUAFFFFABRRRQAUUUUAFFFFABRRRQAUUUUAFFFFABRRRQAUUUUAFFFFABRRRQAUUUUAFFFFABXjPx28NsTaa/AhKgfZ7jHbujfqR+VezVT1LTrbV9NuLC9jElvOhSRT6H+vv6igD5GtLqWyuorq3cxzQuJEYfwsDkGvqLwV4utfGGgxXkLKtwoC3MIPMb9/wAD1B9PfNfPvjTwZe+DNXa3uFaS0kJNvc4+WRfT2Ydx/SszQvEGo+GtRW90u4aGYcHurj0YdxQB9cUV5Lofx4sJo1TXLCa3lAwZLf50P4HkfrXRf8Lj8HbN39oS5/u/ZpM/yoA7iivLNW+PGkW6FdKsLq7k7NLiNP6n9BXnt98VvEeoa5a373IijtpRIlrD8sZ9Q3dsjI5PfjFAH0rRVDRtVttd0e11KzfdBcIHX29QfcHI+oq/QB8/fHWAx+N7eUj5ZbJMH6Mw/wAK4jw3drYeJtLu5CAsF3FIxPYBgTXsXx20F7vRrLWIU3GzYxzYHRGxg/QMMf8AAq8KoA+y+tFeMeCfjRb2mmQaf4jimLwKES6iAbco6bh1yB3Gc+ma6W8+Nvha3iLQNd3L44VINv6tigD0KvnX4yeHW0fxjJfRoRbakPNUgcBxw4+ucH/gVe1eC/FcPjHQ/wC0oYTBiVomjLbipHTn6EH8aXxl4Wt/GHh+bT58JKPnglIz5b9j9OxHoaAPl7StRn0nU7a/tG2z28gkQ+4/pX1P4X8SWfirQ4dQsmGHGJIyctE/dT/nkc18uaxo97oOpy6fqMDQ3ERwQehHYg9wfWrnhrxZqfhO/wDtWlzbM8SRPykg9CP6jBHrQB9YUV5XpHx30m4iA1axubWXuYcSIf5EfrWjc/G7wtDGWhN7O+OFSDH6kigD0Oq1rqFrevOlrcRTNBJ5coRgSjYzg46HkV4N4r+M2ra1DJa6VH/Ztswwzq26Zh/vfw/hz71k/DPxVd+HfFcKxpNcW96winhjUsz5PDAdyCSfpkUAewfF7Qm1nwNcSRJumsWFyoA5IHDf+Okn8K+bK+yXRZUKOoZGGCpHUV8zfEbwXN4Q11xEjHTLli9tJjgeqE+o/UYNAHoXwR8XR3Omv4eunAuLcmS2yfvoeSo9wcn6H2r1mvjq0u57G6jubWV4Z4mDRyIcFSO4r13w58djFAkHiKxeVlGDcW2Mt9UPGfofwoA9oorzuT43+FkjLKL92x90QDP6muJ8VfGzUdUie20OE6dAwwZmbdKR7dl/DJ9xQBufGrxfp8mnDw9buJrvzVkmKniLGcA/7Rz07d68SrSsNG1LWYr25tYHmjtYmnuJj0UDk5J7n06ms2gD6h+GP/JOdG/64n/0Jq6quV+GP/JOdG/64n/0Jq6qgAooooAKKKKACiiigAooooAKKKKACiiigAooooAKKKKACiiigAooooAKKKKACiiigAooooAKKKKACiiigCjqukWOuafJZalbJcW8g5Rh0PqPQj1FeO+JvgZeQyPN4culuIjyLe4O119g3Q/jj8a9wooA+T7/AMGeItMcrd6LfJj+IQll/MZFUU0XU5G2pp12zeggY/0r6+ooA+XdM+G3inVXUQaPcRIf47geUP8Ax7+leieGfgVb27pP4jvPtDDn7Nbkqn4t1I+mPrXr1FAFeysrbTrSO2soI4LeMYSONcBasUUUAQ3drBfWstrdRLLBMpSRGGQwPBFeD+Lvgzqmm3Mlx4fU31kxysWR5sY9MH7w9xz7V79RQB8h3GharaOUudNvInB5DwMP6VYsvCevagwW00e+lz3EDY/MjFfWlFAHnPwh8L654Xsb+PWIEghuGSSKPzAzBgCDnHAyMd+1ejUUUAYHirwbpXi+yEOpwfvEBEVxHxJH9D6exyK8Y1/4LeINLkZ9M8vU7cdDGQkmPdT/AEJr6GooA+Rrrw7rNi5S60q+hYdd8DD+lNttA1a7cJbaXeysegSBj/SvruigD500L4N+JNVdWvYk02A9WnOX/BBz+eK9i8I/D/R/B8W+0jM14Rh7qUZc+oH90ew/EmupooAKoaxo1jr+my2Op26z28o5Vux7EHsR6ir9FAHgnif4JarYSyTaBIL+1zkROQsq/nw31GPpXBXfhvWbByl3pN9Cw674G/wr64ooA+RrPw5rF/II7TS72Vj2SBj/AEr0Hwt8EdSvZEn8QyCxt+phjIaVvx6L+p9q94ooAwz4ZsbHwnd6LpVrHDDLbyRKg/iZlIySepPqa8H/AOFO+Mf+gbH/AOBMf/xVfSlFAHP+BdLutF8Gabp9/GI7mCMq6hgcHcT1HsRXQUUUAFFFFABRRRQAUUUUAFFFFABRRRQAUUUUAFFFFABRRRQAUUUUAFFFFABRRRQAUUUUAFFFFABRRRQAUUUUAFFFFABRRRQAUUUUAFFFFABRRRQAUUUUAFFFFABRRRQAUUUUAFFFFABRRRQAUUUUAFFFFABRRRQAUUUUAFFFFABRRRQAUUUUAFFFFABRRRQAUUUUAFFFFABRRRQAUUUUAFFFFABRRRQAUUUUAFFFFABRRRQAUUUUAFFFFABRRRQAUUUUAFFFFABRRRQAUUUUAFFFFABRRRQAUUUUAFFFFABRRRQAUUUUAFFFFABRRRQAUUUUAFFFFABRRRQAUUUUAFFFFABRRRQAUUUUAFFFFAC0UUUAFFFFABRRRQAUUUUAFFFFABRRRQAUUUUAFFFFABRRRQAUUUUAFFFFABRRRQAUUUUAFFFFABRRRQAUUUUAFFFFABRRRQAUUUUAFFFFABRRRQAUUUUAFFFFABRRRQAUUUUAFFFFABRRRQAUUUUAFFFFABRRRQB//9k=;" vertex="1" parent="4W7vb-_gK_N_zVpGkKDe-17">
          <mxGeometry x="348" y="30" width="132" height="98.11" as="geometry" />
        </mxCell>
        <mxCell id="2liIedxoCzO7XZG55FuA-14" value="Send Job&lt;br style=&quot;font-size: 18px;&quot;&gt;Information" style="text;html=1;strokeColor=none;fillColor=none;align=center;verticalAlign=middle;whiteSpace=wrap;rounded=0;fontSize=18;" vertex="1" parent="4W7vb-_gK_N_zVpGkKDe-17">
          <mxGeometry x="228" y="80" width="60" height="30" as="geometry" />
        </mxCell>
        <mxCell id="4W7vb-_gK_N_zVpGkKDe-3" value="&lt;font style=&quot;font-size: 20px;&quot;&gt;Dataspace provider&lt;/font&gt;" style="text;html=1;strokeColor=none;fillColor=none;align=center;verticalAlign=middle;whiteSpace=wrap;rounded=0;" parent="1" vertex="1">
          <mxGeometry x="12" y="50" width="181" height="10" as="geometry" />
        </mxCell>
        <mxCell id="4W7vb-_gK_N_zVpGkKDe-104" style="edgeStyle=orthogonalEdgeStyle;rounded=0;orthogonalLoop=1;jettySize=auto;html=1;fillColor=#dae8fc;strokeColor=#6c8ebf;strokeWidth=3;startArrow=classic;startFill=1;" parent="1" edge="1">
          <mxGeometry relative="1" as="geometry">
            <mxPoint x="953.6550000000002" y="606.9199999999998" as="sourcePoint" />
          </mxGeometry>
        </mxCell>
        <mxCell id="4W7vb-_gK_N_zVpGkKDe-392" value="" style="endArrow=none;html=1;rounded=0;strokeWidth=4;" parent="1" edge="1">
          <mxGeometry width="50" height="50" relative="1" as="geometry">
            <mxPoint x="-60" y="240" as="sourcePoint" />
            <mxPoint x="620" y="240" as="targetPoint" />
          </mxGeometry>
        </mxCell>
        <mxCell id="4W7vb-_gK_N_zVpGkKDe-396" value="&lt;font style=&quot;font-size: 20px;&quot;&gt;Control&lt;br&gt;Plane&lt;br&gt;&lt;/font&gt;" style="text;html=1;strokeColor=none;fillColor=none;align=center;verticalAlign=middle;whiteSpace=wrap;rounded=0;" parent="1" vertex="1">
          <mxGeometry x="-58" y="167" width="70" height="70" as="geometry" />
        </mxCell>
        <mxCell id="4W7vb-_gK_N_zVpGkKDe-397" value="&lt;font style=&quot;font-size: 20px;&quot;&gt;Data Plane&lt;br&gt;&lt;/font&gt;" style="text;html=1;strokeColor=none;fillColor=none;align=center;verticalAlign=middle;whiteSpace=wrap;rounded=0;" parent="1" vertex="1">
          <mxGeometry x="-58" y="235" width="70" height="70" as="geometry" />
        </mxCell>
        <mxCell id="xci1zv83TCUc0aVE51ZR-14" style="edgeStyle=orthogonalEdgeStyle;rounded=0;orthogonalLoop=1;jettySize=auto;html=1;fillColor=#e1d5e7;strokeColor=#9673a6;strokeWidth=2;startArrow=classic;startFill=1;jumpStyle=arc;exitX=0.5;exitY=1;exitDx=0;exitDy=0;" parent="1" source="2liIedxoCzO7XZG55FuA-3" target="2liIedxoCzO7XZG55FuA-6" edge="1">
          <mxGeometry relative="1" as="geometry">
            <mxPoint x="328" y="207" as="sourcePoint" />
            <mxPoint x="327.94736842105294" y="329.60263157894724" as="targetPoint" />
          </mxGeometry>
        </mxCell>
        <mxCell id="xci1zv83TCUc0aVE51ZR-16" value="&lt;font style=&quot;font-size: 20px;&quot;&gt;UVA&lt;/font&gt;" style="text;html=1;strokeColor=none;fillColor=none;align=left;verticalAlign=middle;whiteSpace=wrap;rounded=0;" parent="1" vertex="1">
          <mxGeometry x="20" y="480" width="48" height="30" as="geometry" />
        </mxCell>
        <mxCell id="xci1zv83TCUc0aVE51ZR-27" style="edgeStyle=orthogonalEdgeStyle;rounded=0;orthogonalLoop=1;jettySize=auto;html=1;fillColor=#e1d5e7;strokeColor=#9673a6;strokeWidth=3;startArrow=classic;startFill=1;entryX=0.462;entryY=0.98;entryDx=0;entryDy=0;entryPerimeter=0;exitX=1;exitY=0.5;exitDx=0;exitDy=0;" parent="1" source="2liIedxoCzO7XZG55FuA-6" target="2liIedxoCzO7XZG55FuA-4" edge="1">
          <mxGeometry relative="1" as="geometry">
            <mxPoint x="327.99999999999955" y="518" as="sourcePoint" />
            <mxPoint x="327.94736842105294" y="348.44473684210516" as="targetPoint" />
          </mxGeometry>
        </mxCell>
        <mxCell id="xci1zv83TCUc0aVE51ZR-24" value="" style="image;sketch=0;aspect=fixed;html=1;points=[];align=center;fontSize=12;image=img/lib/mscae/Kubernetes.svg;" parent="1" vertex="1">
          <mxGeometry x="483" y="45" width="50" height="48" as="geometry" />
        </mxCell>
        <mxCell id="xci1zv83TCUc0aVE51ZR-26" value="&lt;font style=&quot;font-size: 16px;&quot;&gt;Provider / Compute Node&lt;/font&gt;" style="text;html=1;strokeColor=none;fillColor=none;align=left;verticalAlign=middle;whiteSpace=wrap;rounded=0;fontSize=16;" parent="1" vertex="1">
          <mxGeometry x="20" y="498" width="110" height="60" as="geometry" />
        </mxCell>
        <mxCell id="xci1zv83TCUc0aVE51ZR-29" value="" style="sketch=0;html=1;dashed=0;whitespace=wrap;fillColor=#2875E2;strokeColor=#ffffff;points=[[0.005,0.63,0],[0.1,0.2,0],[0.9,0.2,0],[0.5,0,0],[0.995,0.63,0],[0.72,0.99,0],[0.5,1,0],[0.28,0.99,0]];verticalLabelPosition=bottom;align=center;verticalAlign=top;shape=mxgraph.kubernetes.icon;prIcon=pod" parent="1" vertex="1">
          <mxGeometry x="210.57" y="712" width="50" height="48" as="geometry" />
        </mxCell>
        <mxCell id="xci1zv83TCUc0aVE51ZR-30" value="" style="sketch=0;html=1;dashed=0;whitespace=wrap;fillColor=#2875E2;strokeColor=#ffffff;points=[[0.005,0.63,0],[0.1,0.2,0],[0.9,0.2,0],[0.5,0,0],[0.995,0.63,0],[0.72,0.99,0],[0.5,1,0],[0.28,0.99,0]];verticalLabelPosition=bottom;align=center;verticalAlign=top;shape=mxgraph.kubernetes.icon;prIcon=pod" parent="1" vertex="1">
          <mxGeometry x="270.67999999999995" y="712" width="50" height="48" as="geometry" />
        </mxCell>
        <mxCell id="xci1zv83TCUc0aVE51ZR-31" value="" style="sketch=0;html=1;dashed=0;whitespace=wrap;fillColor=#2875E2;strokeColor=#ffffff;points=[[0.005,0.63,0],[0.1,0.2,0],[0.9,0.2,0],[0.5,0,0],[0.995,0.63,0],[0.72,0.99,0],[0.5,1,0],[0.28,0.99,0]];verticalLabelPosition=bottom;align=center;verticalAlign=top;shape=mxgraph.kubernetes.icon;prIcon=pod" parent="1" vertex="1">
          <mxGeometry x="329.31999999999994" y="712" width="50" height="48" as="geometry" />
        </mxCell>
        <mxCell id="xci1zv83TCUc0aVE51ZR-32" value="" style="sketch=0;html=1;dashed=0;whitespace=wrap;fillColor=#2875E2;strokeColor=#ffffff;points=[[0.005,0.63,0],[0.1,0.2,0],[0.9,0.2,0],[0.5,0,0],[0.995,0.63,0],[0.72,0.99,0],[0.5,1,0],[0.28,0.99,0]];verticalLabelPosition=bottom;align=center;verticalAlign=top;shape=mxgraph.kubernetes.icon;prIcon=pod" parent="1" vertex="1">
          <mxGeometry x="385" y="712" width="50" height="48" as="geometry" />
        </mxCell>
        <mxCell id="xci1zv83TCUc0aVE51ZR-33" value="Composed &lt;br&gt;data exchange Microservices" style="text;html=1;strokeColor=none;fillColor=none;align=center;verticalAlign=middle;whiteSpace=wrap;rounded=0;fontSize=18;" parent="1" vertex="1">
          <mxGeometry x="206.24" y="772" width="243.51" height="30" as="geometry" />
        </mxCell>
        <mxCell id="xci1zv83TCUc0aVE51ZR-34" value="" style="rounded=1;whiteSpace=wrap;html=1;fillColor=none;dashed=1;dashPattern=8 8;" parent="1" vertex="1">
          <mxGeometry x="189" y="712" width="280" height="100" as="geometry" />
        </mxCell>
        <mxCell id="2liIedxoCzO7XZG55FuA-1" value="" style="group" vertex="1" connectable="0" parent="1">
          <mxGeometry x="260" y="93" width="110" height="100" as="geometry" />
        </mxCell>
        <mxCell id="2liIedxoCzO7XZG55FuA-2" value="" style="shape=image;verticalLabelPosition=bottom;labelBackgroundColor=default;verticalAlign=top;aspect=fixed;imageAspect=0;image=https://download.logo.wine/logo/Go_(programming_language)/Go_(programming_language)-Logo.wine.png;fontSize=16;" vertex="1" parent="2liIedxoCzO7XZG55FuA-1">
          <mxGeometry width="102.5" height="68.33" as="geometry" />
        </mxCell>
        <mxCell id="2liIedxoCzO7XZG55FuA-3" value="&lt;span style=&quot;color: rgb(0, 0, 0); font-family: Helvetica; font-size: 16px; font-style: normal; font-variant-ligatures: normal; font-variant-caps: normal; font-weight: 400; letter-spacing: normal; orphans: 2; text-indent: 0px; text-transform: none; widows: 2; word-spacing: 0px; -webkit-text-stroke-width: 0px; background-color: rgb(255, 255, 255); text-decoration-thickness: initial; text-decoration-style: initial; text-decoration-color: initial; float: none; display: inline !important;&quot;&gt;Process&lt;/span&gt;&lt;br style=&quot;border-color: var(--border-color); padding: 0px; margin: 0px; color: rgb(0, 0, 0); font-family: Helvetica; font-size: 16px; font-style: normal; font-variant-ligatures: normal; font-variant-caps: normal; font-weight: 400; letter-spacing: normal; orphans: 2; text-indent: 0px; text-transform: none; widows: 2; word-spacing: 0px; -webkit-text-stroke-width: 0px; text-decoration-thickness: initial; text-decoration-style: initial; text-decoration-color: initial;&quot;&gt;&lt;span style=&quot;color: rgb(0, 0, 0); font-family: Helvetica; font-size: 16px; font-style: normal; font-variant-ligatures: normal; font-variant-caps: normal; font-weight: 400; letter-spacing: normal; orphans: 2; text-indent: 0px; text-transform: none; widows: 2; word-spacing: 0px; -webkit-text-stroke-width: 0px; background-color: rgb(255, 255, 255); text-decoration-thickness: initial; text-decoration-style: initial; text-decoration-color: initial; float: none; display: inline !important;&quot;&gt;Orchestrator&lt;/span&gt;" style="text;whiteSpace=wrap;html=1;align=center;" vertex="1" parent="2liIedxoCzO7XZG55FuA-1">
          <mxGeometry x="10" y="50" width="100" height="50" as="geometry" />
        </mxCell>
        <mxCell id="2liIedxoCzO7XZG55FuA-5" value="" style="group" vertex="1" connectable="0" parent="1">
          <mxGeometry x="269.32" y="540" width="110" height="100" as="geometry" />
        </mxCell>
        <mxCell id="2liIedxoCzO7XZG55FuA-6" value="" style="shape=image;verticalLabelPosition=bottom;labelBackgroundColor=default;verticalAlign=top;aspect=fixed;imageAspect=0;image=https://download.logo.wine/logo/Go_(programming_language)/Go_(programming_language)-Logo.wine.png;fontSize=16;" vertex="1" parent="2liIedxoCzO7XZG55FuA-5">
          <mxGeometry width="102.5" height="68.33" as="geometry" />
        </mxCell>
        <mxCell id="2liIedxoCzO7XZG55FuA-7" value="&lt;span style=&quot;font-size: 16px; background-color: rgb(255, 255, 255);&quot;&gt;Distributed agent&lt;/span&gt;" style="text;whiteSpace=wrap;html=1;align=center;" vertex="1" parent="2liIedxoCzO7XZG55FuA-5">
          <mxGeometry x="10" y="50" width="100" height="50" as="geometry" />
        </mxCell>
        <mxCell id="xci1zv83TCUc0aVE51ZR-28" style="edgeStyle=orthogonalEdgeStyle;rounded=0;orthogonalLoop=1;jettySize=auto;html=1;fillColor=#dae8fc;strokeColor=#6c8ebf;strokeWidth=3;startArrow=classic;startFill=1;entryX=0.5;entryY=0;entryDx=0;entryDy=0;" parent="2liIedxoCzO7XZG55FuA-5" target="xci1zv83TCUc0aVE51ZR-34" edge="1">
          <mxGeometry relative="1" as="geometry">
            <mxPoint x="59.55000000000001" y="100" as="sourcePoint" />
            <mxPoint x="59.54999999999956" y="175" as="targetPoint" />
          </mxGeometry>
        </mxCell>
        <mxCell id="2liIedxoCzO7XZG55FuA-11" value="" style="image;sketch=0;aspect=fixed;html=1;points=[];align=center;fontSize=12;image=img/lib/mscae/Kubernetes.svg;" vertex="1" parent="1">
          <mxGeometry x="483" y="476" width="50" height="48" as="geometry" />
        </mxCell>
        <mxCell id="2liIedxoCzO7XZG55FuA-12" value="Generate Microservice chain" style="text;html=1;strokeColor=none;fillColor=none;align=center;verticalAlign=middle;whiteSpace=wrap;rounded=0;fontSize=18;" vertex="1" parent="1">
          <mxGeometry x="435" y="575" width="60" height="30" as="geometry" />
        </mxCell>
        <mxCell id="2liIedxoCzO7XZG55FuA-13" style="rounded=0;orthogonalLoop=1;jettySize=auto;html=1;exitX=0.5;exitY=1;exitDx=0;exitDy=0;fillColor=#e1d5e7;strokeColor=#9673a6;strokeWidth=3;jumpStyle=arc;" edge="1" parent="1" source="2liIedxoCzO7XZG55FuA-3" target="2liIedxoCzO7XZG55FuA-4">
          <mxGeometry relative="1" as="geometry" />
        </mxCell>
        <mxCell id="2liIedxoCzO7XZG55FuA-15" value="Save Job&lt;br style=&quot;font-size: 18px;&quot;&gt;Information" style="text;html=1;strokeColor=none;fillColor=none;align=center;verticalAlign=middle;whiteSpace=wrap;rounded=0;fontSize=18;" vertex="1" parent="1">
          <mxGeometry x="375" y="193" width="60" height="30" as="geometry" />
        </mxCell>
      </root>
    </mxGraphModel>
  </diagram>
</mxfile>
